{"title":"Hide 2011 DVDRiP AC3 XViD - U.S.M","uid":6784068,"size":896662233,"categoryP":"video","categoryS":"movies","magnet":"?xt=urn:btih:f39577763e0cd17f190259b3d5444e5d2f6c2159&amp;dn=Hide+2011+DVDRiP+AC3+XViD+-+U.S.M&amp;tr=udp%3A%2F%2Ftracker.openbittorrent.com%3A80&amp;tr=udp%3A%2F%2Fopen.demonii.com%3A1337&amp;tr=udp%3A%2F%2Ftracker.coppersurfer.tk%3A6969&amp;tr=udp%3A%2F%2Fexodus.desync.com%3A6969","seeders":0,"leechers":1,"uploader":"sceneline","files":65,"time":1320021488,"description":"- &lt;a href=&quot;\nhttp://www.Speed.Cd&quot; rel=&quot;nofollow&quot; target=&quot;_NEW&quot;&gt;\nhttp://www.Speed.Cd&lt;/a&gt;      fast  and The Hottest Private Tracker on the net\n\nPlease Seed back to make the speed Faster!!!\n\n------------------nfo--------------------------\n-UUUUUUUU     UUUUUUUU           SSSSSSSSSSSSSSS         MMMMMMMM               MMMMMMMM     \nU::::::U     U::::::U         SS:::::::::::::::S        M:::::::M             M:::::::M     \nU::::::U     U::::::U        S:::::SSSSSS::::::S        M::::::::M           M::::::::M     \nUU:::::U     U:::::UU        S:::::S     SSSSSSS        M:::::::::M         M:::::::::M     \n U:::::U     U:::::U         S:::::S                    M::::::::::M       M::::::::::M     \n U:::::D     D:::::U         S:::::S                    M:::::::::::M     M:::::::::::M     \n U:::::D     D:::::U          S::::SSSS                 M:::::::M::::M   M::::M:::::::M     \n U:::::D     D:::::U           SS::::::SSSSS            M::::::M M::::M M::::M M::::::M     \n U:::::D     D:::::U             SSS::::::::SS          M::::::M  M::::M::::M  M::::::M     \n U:::::D     D:::::U                SSSSSS::::S         M::::::M   M:::::::M   M::::::M     \n U:::::D     D:::::U                     S:::::S        M::::::M    M:::::M    M::::::M     \n U::::::U   U::::::U                     S:::::S        M::::::M     MMMMM     M::::::M     \n U:::::::UUU:::::::U         SSSSSSS     S:::::S        M::::::M               M::::::M     \n  UU:::::::::::::UU   ...... S::::::SSSSSS:::::S ...... M::::::M               M::::::M     \n    UU:::::::::UU     .::::. S:::::::::::::::SS  .::::. M::::::M               M::::::M     \n      UUUUUUUUU       ......  SSSSSSSSSSSSSSS    ...... MMMMMMMM               MMMMMMMM   \n\n\n\n                            Hide 2011 DVDRiP AC3 XViD - U.S.M\n\n\nSOURCES:\n\nfilmikz.Hide 2011 DVDRiP XViD\n\nIMDB:\n &lt;a href=&quot;\nhttp://www.imdb.com/title/tt1826689/&quot; rel=&quot;nofollow&quot; target=&quot;_NEW&quot;&gt;\nhttp://www.imdb.com/title/tt1826689/&lt;/a&gt;\n\nVideo\nID                               : 0\nFormat                           : MPEG-4 Visual\nFormat profile                   : Advanced Simple@L5\nFormat settings, BVOP            : 2\nFormat settings, QPel            : No\nFormat settings, GMC             : No warppoints\nFormat settings, Matrix          : Default (H.263)\nMuxing mode                      : Packed bitstream\nCodec ID                         : XVID\nCodec ID/Hint                    : XviD\nDuration                         : 1h 23mn\nBit rate                         : 953 Kbps\nWidth                            : 720 pixels\nHeight                           : 404 pixels\nDisplay aspect ratio             : 16:9\nFrame rate                       : 23.976 fps\nColor space                      : YUV\nChroma subsampling               : 4:2:0\nBit depth                        : 8 bits\nScan type                        : Progressive\nCompression mode                 : Lossy\nBits/(Pixel*Frame)               : 0.137\nStream size                      : 570 MiB (67%)\nWriting library                  : XviD 1.2.1 (UTC 2008-12-04)\n\nAudio\nID                               : 1\nFormat                           : AC-3\nFormat/Info                      : Audio Coding 3\nMode extension                   : CM (complete main)\nCodec ID                         : 2000\nDuration                         : 1h 23mn\nBit rate mode                    : Constant\nBit rate                         : 448 Kbps\nChannel(s)                       : 6 channels\nChannel positions                : Front: L C R, Side: L R, LFE\nSampling rate                    : 48.0 KHz\nBit depth                        : 16 bits\nCompression mode                 : Lossy\nStream size                      : 268 MiB (32%)\nAlignment                        : Aligned on interleaves\nInterleave, duration             : 32 ms (0.77 video frame)\nInterleave, preload duration     : 32 ms\n\n\nWORKDONE:\n\nHands all i've done is cut a sample and repacked it up for everyone....so no credit to us.\n\nSCREENIES:\n\n[IMG]http://i.imgur.com/B005g.png[/IMG]\n[IMG]http://i.imgur.com/aYeUO.png[/IMG]\n[IMG]http://i.imgur.com/DXMkL.png[/IMG]\n[IMG]http://i.imgur.com/NNSQO.png[/IMG]","torrent":{"xt":"urn:btih:f39577763e0cd17f190259b3d5444e5d2f6c2159","amp;dn":"Hide+2011+DVDRiP+AC3+XViD+-+U.S.M","amp;tr":["udp%3A%2F%2Ftracker.openbittorrent.com%3A80","udp%3A%2F%2Fopen.demonii.com%3A1337","udp%3A%2F%2Ftracker.coppersurfer.tk%3A6969","udp%3A%2F%2Fexodus.desync.com%3A6969"],"infoHash":"f39577763e0cd17f190259b3d5444e5d2f6c2159","infoHashBuffer":{"type":"Buffer","data":[243,149,119,118,62,12,209,127,25,2,89,179,213,68,78,93,47,108,33,89]},"announce":[],"urlList":[]}}